<svg width="21" height="20" viewBox="0 0 21 20" fill="none" xmlns="http://www.w3.org/2000/svg">
<path fill-rule="evenodd" clip-rule="evenodd" d="M18 3.125C18 2.95924 17.9341 2.80027 17.8169 2.68306C17.6997 2.56585 17.5408 2.5 17.375 2.5H9.875C9.70924 2.5 9.55026 2.56585 9.43305 2.68306C9.31584 2.80027 9.25 2.95924 9.25 3.125C9.25 3.29076 9.31584 3.44973 9.43305 3.56694C9.55026 3.68415 9.70924 3.75 9.875 3.75H15.8662L3.1825 16.4325C3.12439 16.4906 3.07829 16.5596 3.04684 16.6355C3.01539 16.7114 2.99921 16.7928 2.99921 16.875C2.99921 16.9572 3.01539 17.0386 3.04684 17.1145C3.07829 17.1904 3.12439 17.2594 3.1825 17.3175C3.24061 17.3756 3.30959 17.4217 3.38552 17.4532C3.46144 17.4846 3.54282 17.5008 3.625 17.5008C3.70718 17.5008 3.78855 17.4846 3.86448 17.4532C3.9404 17.4217 4.00939 17.3756 4.0675 17.3175L16.75 4.63375V10.625C16.75 10.7908 16.8158 10.9497 16.9331 11.0669C17.0503 11.1842 17.2092 11.25 17.375 11.25C17.5408 11.25 17.6997 11.1842 17.8169 11.0669C17.9341 10.9497 18 10.7908 18 10.625V3.125Z" fill="#0A142F"/>
</svg>
