<svg width="16" height="16" viewBox="0 0 16 16" fill="none" xmlns="http://www.w3.org/2000/svg">
<rect width="16" height="16" fill="#1C1B45"/>
<path d="M15 13.6411H11.8865L11.2551 11.8916C10.0938 13.2972 8.61327 14 6.81338 14C5.18766 14 3.80871 13.4168 2.67652 12.2505C1.55884 11.0841 1 9.67103 1 8.01122C1 6.74019 1.34837 5.59626 2.0451 4.57944C2.74183 3.54766 3.67081 2.81495 4.83204 2.38131C5.51426 2.1271 6.18196 2 6.83515 2C8.06895 2 9.17937 2.36635 10.1664 3.09907C11.168 3.81682 11.8792 4.77383 12.3002 5.97009L15 13.6411ZM9.70917 8.01122C9.70917 6.96449 9.29549 6.14953 8.46812 5.56636C7.98911 5.22243 7.43753 5.05047 6.81338 5.05047C5.7973 5.05047 5.01348 5.46916 4.4619 6.30654C4.11353 6.82991 3.93935 7.39813 3.93935 8.01122C3.93935 9.04299 4.35303 9.85047 5.1804 10.4336C5.68844 10.7925 6.23276 10.972 6.81338 10.972C7.61172 10.972 8.29394 10.6879 8.86003 10.1196C9.42613 9.53645 9.70917 8.83365 9.70917 8.01122Z" fill="#FFC93E"/>
</svg>
